{
  "accessors": [
    {
      "bufferView": 2,
      "componentType": 5126,
      "count": 25656,
      "max": [
        6.584893703460693,
        9.588262557983398,
        7.77983283996582
      ],
      "min": [
        -2.0731444358825684,
        -0.07706356048583984,
        -7.779832363128662
      ],
      "type": "VEC3"
    },
    {
      "bufferView": 2,
      "byteOffset": 307872,
      "componentType": 5126,
      "count": 25656,
      "max": [
        0.9999709725379944,
        0.9999781250953674,
        1.0
      ],
      "min": [
        -0.99969083070755,
        -0.9999691843986511,
        -1.0
      ],
      "type": "VEC3"
    },
    {
      "bufferView": 1,
      "componentType": 5126,
      "count": 25656,
      "max": [
        0.9935312271118164,
        0.99234539270401
      ],
      "min": [
        0.006976425647735596,
        0.011021792888641357
      ],
      "type": "VEC2"
    },
    {
      "bufferView": 1,
      "byteOffset": 205248,
      "componentType": 5126,
      "count": 25656,
      "max": [
        0.9935312271118164,
        0.99234539270401
      ],
      "min": [
        0.006976425647735596,
        0.011021792888641357
      ],
      "type": "VEC2"
    },
    {
      "bufferView": 1,
      "byteOffset": 410496,
      "componentType": 5126,
      "count": 25656,
      "max": [
        0.9935312271118164,
        0.99234539270401
      ],
      "min": [
        0.006976425647735596,
        0.011021792888641357
      ],
      "type": "VEC2"
    },
    {
      "bufferView": 1,
      "byteOffset": 615744,
      "componentType": 5126,
      "count": 25656,
      "max": [
        0.9935312271118164,
        0.99234539270401
      ],
      "min": [
        0.006976425647735596,
        0.011021792888641357
      ],
      "type": "VEC2"
    },
    {
      "bufferView": 1,
      "byteOffset": 820992,
      "componentType": 5126,
      "count": 25656,
      "max": [
        0.9935312271118164,
        0.99234539270401
      ],
      "min": [
        0.006976425647735596,
        0.011021792888641357
      ],
      "type": "VEC2"
    },
    {
      "bufferView": 0,
      "componentType": 5125,
      "count": 129357,
      "type": "SCALAR"
    }
  ],
  "asset": {
    "extras": {
      "author": "tdh082 (https://sketchfab.com/tdh082)",
      "license": "CC-BY-4.0 (http://creativecommons.org/licenses/by/4.0/)",
      "source": "https://sketchfab.com/3d-models/xbox-inalambric-controller-black-d244c12f8ee7479ebb3b027c277f402e",
      "title": "Xbox Inalambric Controller Black"
    },
    "generator": "Sketchfab-11.22.0",
    "version": "2.0"
  },
  "bufferViews": [
    {
      "buffer": 0,
      "byteLength": 517428,
      "name": "floatBufferViews",
      "target": 34963
    },
    {
      "buffer": 0,
      "byteLength": 1026240,
      "byteOffset": 517428,
      "byteStride": 8,
      "name": "floatBufferViews",
      "target": 34962
    },
    {
      "buffer": 0,
      "byteLength": 615744,
      "byteOffset": 1543668,
      "byteStride": 12,
      "name": "floatBufferViews",
      "target": 34962
    }
  ],
  "buffers": [
    {
      "byteLength": 2159412,
      "uri": "scene.bin"
    }
  ],
  "images": [
    {
      "uri": "textures/material_baseColor.png"
    },
    {
      "uri": "textures/material_metallicRoughness.png"
    }
  ],
  "materials": [
    {
      "doubleSided": true,
      "name": "material",
      "pbrMetallicRoughness": {
        "baseColorTexture": {
          "index": 0
        },
        "metallicRoughnessTexture": {
          "index": 1
        }
      }
    }
  ],
  "meshes": [
    {
      "name": "Object_0",
      "primitives": [
        {
          "attributes": {
            "NORMAL": 1,
            "POSITION": 0,
            "TEXCOORD_0": 2,
            "TEXCOORD_1": 3,
            "TEXCOORD_2": 4,
            "TEXCOORD_3": 5,
            "TEXCOORD_4": 6
          },
          "indices": 7,
          "material": 0,
          "mode": 4
        }
      ]
    }
  ],
  "nodes": [
    {
      "children": [
        1
      ],
      "matrix": [
        1.0,
        0.0,
        0.0,
        0.0,
        0.0,
        2.220446049250313e-16,
        -1.0,
        0.0,
        0.0,
        1.0,
        2.220446049250313e-16,
        0.0,
        0.0,
        0.0,
        0.0,
        1.0
      ],
      "name": "Sketchfab_model"
    },
    {
      "children": [
        2
      ],
      "name": "root"
    },
    {
      "children": [
        3
      ],
      "matrix": [
        1.0,
        0.0,
        0.0,
        0.0,
        0.0,
        2.220446049250313e-16,
        1.0,
        0.0,
        0.0,
        -1.0,
        2.220446049250313e-16,
        0.0,
        0.0,
        0.0,
        0.0,
        1.0
      ],
      "name": "GLTF_SceneRootNode"
    },
    {
      "children": [
        4
      ],
      "matrix": [
        1.0,
        0.0,
        0.0,
        0.0,
        0.0,
        2.220446049250313e-16,
        -1.0,
        0.0,
        0.0,
        1.0,
        2.220446049250313e-16,
        0.0,
        0.0,
        0.0,
        0.0,
        1.0
      ],
      "name": "Sketchfab_model_0"
    },
    {
      "children": [
        5
      ],
      "name": "root_1"
    },
    {
      "children": [
        6
      ],
      "matrix": [
        1.0,
        0.0,
        0.0,
        0.0,
        0.0,
        2.220446049250313e-16,
        1.0,
        0.0,
        0.0,
        -1.0,
        2.220446049250313e-16,
        0.0,
        0.0,
        0.0,
        0.0,
        1.0
      ],
      "name": "GLTF_SceneRootNode_2"
    },
    {
      "children": [
        7
      ],
      "name": "root_0_3"
    },
    {
      "children": [
        8
      ],
      "matrix": [
        0.0,
        0.0,
        0.052972856909036636,
        0.0,
        0.0,
        0.052972856909036636,
        0.0,
        0.0,
        -0.052972856909036636,
        0.0,
        0.0,
        0.0,
        2.8778741612001113e-09,
        -0.2519177198410034,
        0.2926208972930908,
        1.0
      ],
      "name": "node_id74_1_4"
    },
    {
      "children": [
        9
      ],
      "name": "Object_5_5"
    },
    {
      "mesh": 0,
      "name": "Object_9"
    }
  ],
  "samplers": [
    {
      "magFilter": 9729,
      "minFilter": 9987,
      "wrapS": 10497,
      "wrapT": 10497
    }
  ],
  "scene": 0,
  "scenes": [
    {
      "name": "Sketchfab_Scene",
      "nodes": [
        0
      ]
    }
  ],
  "textures": [
    {
      "sampler": 0,
      "source": 0
    },
    {
      "sampler": 0,
      "source": 1
    }
  ]
}
